<svg width="434" height="127" viewBox="0 0 434 127" fill="none" xmlns="http://www.w3.org/2000/svg">
<g clip-path="url(#clip0)">
<path d="M72.7588 5.37207H20.8034C6.9776 5.37207 0 12.0833 0 25.3766V96.5222C0 98.2647 0.935927 99.3376 2.95235 99.3376H18.6577C20.5371 99.3376 21.747 98.2647 21.747 96.5222V93.821C21.747 87.2314 24.5243 83.6399 31.4258 82.9475H72.7588C87.9239 82.9475 94.7721 76.3731 94.7721 62.0071V26.3125C94.7721 11.9464 87.9239 5.37207 72.7588 5.37207ZM73.0479 55.9654C73.0479 63.7572 71.2826 65.3627 62.0147 65.3627H40.0014C30.741 65.3627 24.8287 68.452 21.7394 74.4937V30.6117C21.7394 24.57 23.2155 22.9568 30.5964 22.9568H62.0147C71.2826 22.9568 73.0479 24.57 73.0479 32.3542V55.9654Z" fill="#8257E5"/>
<path d="M144.574 44.7039C132.628 44.7039 127.522 50.7456 127.522 60.9495V96.7886C127.522 98.4018 126.715 99.3377 124.836 99.3377H110.607C108.727 99.3377 107.791 98.4018 107.791 96.7886V31.2814C107.791 29.6682 108.727 28.7247 110.607 28.7247H122.553C124.303 28.7247 125.239 29.6682 125.239 31.2814V41.8505C127.522 33.1304 134.104 28.6943 145.784 28.6943H150.616C152.358 28.6943 153.294 29.6378 153.294 31.2509V42.1549C153.294 43.8974 152.358 44.7039 150.616 44.7039H144.574Z" fill="#8257E5"/>
<path d="M237.192 80.1401C237.192 93.4333 231.287 99.338 217.195 99.338H182.292C168.329 99.338 162.287 93.4333 162.287 80.1401V47.9381C162.287 34.6525 168.329 28.7402 182.292 28.7402H217.195C231.287 28.7402 237.192 34.6525 237.192 47.9381V80.1401ZM217.461 53.0287C217.461 46.0434 216.122 44.7042 207.798 44.7042H191.818C183.365 44.7042 182.018 46.0434 182.018 53.0287V75.042C182.018 82.0196 183.365 83.3664 191.818 83.3664H207.798C216.122 83.3664 217.461 82.0196 217.461 75.042V53.0287Z" fill="#8257E5"/>
<path d="M257.059 44.7038H250.34C248.59 44.7038 247.654 43.8973 247.654 42.1548V31.2813C247.654 29.6681 248.59 28.7246 250.34 28.7246H257.052V20.0045C257.059 6.71128 264.037 0 277.863 0H294.375C296.254 0 297.061 0.943536 297.061 2.54907V13.4226C297.061 15.1727 296.254 15.9716 294.375 15.9716H285.654C278.266 15.9716 276.79 17.5848 276.79 23.6264V28.7246H294.375C296.254 28.7246 297.061 29.6681 297.061 31.2813V42.1548C297.061 43.8973 296.254 44.7038 294.375 44.7038H276.79V96.7885C276.79 98.4017 275.854 99.3376 273.974 99.3376H259.745C257.866 99.3376 257.059 98.4017 257.059 96.7885V44.7038Z" fill="#8257E5"/>
<path d="M311.831 44.7038H305.127C303.385 44.7038 302.449 43.8973 302.449 42.1548V31.2813C302.449 29.6681 303.385 28.7246 305.127 28.7246H311.846V20.0045C311.831 6.71128 318.824 0 332.634 0H349.146C351.026 0 351.832 0.943536 351.832 2.54907V13.4226C351.832 15.1727 351.026 15.9716 349.146 15.9716H340.419C333.038 15.9716 331.562 17.5848 331.562 23.6264V28.7246H349.146C351.026 28.7246 351.832 29.6681 351.832 31.2813V42.1548C351.832 43.8973 351.026 44.7038 349.146 44.7038H331.562V96.7885C331.562 98.4017 330.618 99.3376 328.739 99.3376H314.509C312.63 99.3376 311.831 98.4017 311.831 96.7885V44.7038Z" fill="#8257E5"/>
<path d="M411.83 126.723H382.565C369.416 126.723 363.778 121.625 363.778 109.001V107.662C363.739 107.302 363.781 106.937 363.903 106.596C364.024 106.254 364.22 105.944 364.478 105.689C364.735 105.434 365.046 105.24 365.389 105.122C365.732 105.004 366.096 104.964 366.456 105.006H380.153C382.032 105.006 382.968 105.95 382.968 107.692V108.362C382.968 111.048 384.452 112.121 387.404 112.121H404.319C412.37 112.121 414.386 110.112 414.386 103.264V82.0874C411.297 88.1291 405.392 91.2184 396.124 91.2184H382.428C368.465 91.2184 362.286 85.3137 362.286 72.0205V31.2811C362.268 30.9293 362.326 30.5777 362.457 30.2505C362.587 29.9232 362.787 29.6281 363.042 29.3852C363.297 29.1424 363.601 28.9576 363.935 28.8435C364.268 28.7294 364.622 28.6888 364.972 28.7244H379.339C381.081 28.7244 382.025 29.6679 382.025 31.2811V66.9604C382.025 73.938 383.501 75.2848 391.825 75.2848H402.029C410.886 75.2848 414.379 71.6553 414.379 64.2744V31.2811C414.379 29.6679 415.315 28.7244 417.065 28.7244H431.438C431.782 28.6912 432.129 28.7346 432.454 28.8515C432.779 28.9683 433.074 29.1557 433.317 29.4002C433.561 29.6447 433.748 29.9402 433.863 30.2654C433.979 30.5906 434.022 30.9375 433.988 31.2811V105.379C433.98 119.464 426.462 126.723 411.83 126.723Z" fill="#8257E5"/>
</g>
<defs>
<clipPath id="clip0">
<rect width="434" height="127" fill="white"/>
</clipPath>
</defs>
</svg>
